<?xml version="1.0" encoding="UTF-8"?>
<svg id="Livello_1" xmlns="http://www.w3.org/2000/svg" version="1.1" viewBox="0 0 1920 1080">
  <!-- Generator: Adobe Illustrator 29.0.0, SVG Export Plug-In . SVG Version: 2.1.0 Build 186)  -->
  <defs>
    <style>
      .st0 {
        fill: #4285f4;
      }
    </style>
  </defs>
  <path class="st0" d="M749.8,532.6h-53.8v26c12.4-3.7,25.5-5.7,39.1-5.7s9.9.3,14.8.8v-13.6h0v-7.6ZM720.3,511.4c5,1.4,9.8,3.6,14.3,6.5l12.9-24c-5-3.3-10.2-5.9-15.4-7.7-5.2-1.8-10.4-3.1-15.4-3.8-5-.7-9.9-1.1-14.5-1.1-10,0-19.4,1.6-28.1,4.7-8.7,3.1-16.4,7.7-23,13.7-6.6,6-11.8,13.2-15.5,21.5-3.7,8.4-5.6,17.8-5.6,28.3s1.9,20.1,5.8,28.5c1.3,2.9,2.9,5.5,4.5,8.1,6.5-3,12.7-6.4,18.6-10.3,2.6-1.7,5.3-3.4,8-4.9-3.3-5.8-5-12.8-5-21.1s1-11.9,2.9-16.9c1.9-5,4.7-9.2,8.4-12.7,3.6-3.5,8.1-6.2,13.3-8.1,5.2-1.9,11.1-2.8,17.6-2.8s11,.7,16.1,2.1M861.3,532.6h-51.5v-48.5h-31v75.9c11,3.7,21.4,8.7,31,14.9v-14.1h51.5v35.4c8.3,1.6,17,2.4,25.8,2.4s3.5,0,5.2,0v-114.4h-31v48.5ZM514.6,532.6h-51.5v-48.5h-31v68.9c15.8.1,30.9,2.9,45,7.9h37.5v19.6c9.7,5.5,20.1,9.9,31,13v-109.4h-31v48.5ZM576.4,598.5c2.2.1,4.4.2,6.6.2,8.3,0,16.5-.8,24.4-2.2v-112.4h-31v114.4ZM1074,557.5c10.9,2.9,21.3,7,31,12.3v-85.6h-31v73.3ZM1216.4,492.5c-10.2-5.5-22.1-8.3-35.7-8.3h-44.8v103c16.9,7.4,35.6,11.6,55.3,11.6s29.9-2.5,43.7-7.1c3.8-4.6,6.9-9.8,9.2-15.5,3.3-8,4.9-16.9,4.9-26.6s-2.9-24.2-8.6-34c-5.7-9.8-13.7-17.5-24-23M1213.8,565.2c-1.8,4.5-4.3,8.4-7.7,11.5-3.3,3.1-7.3,5.4-11.8,7-4.5,1.6-9.6,2.3-15.2,2.3h-12.2v-73h12.2c7.4,0,13.9,1.4,19.6,4.2,5.6,2.8,10,6.9,13.1,12.3,3.1,5.4,4.7,12.1,4.7,20s-.9,11.1-2.7,15.7M1478.9,552.6c-6-5.9-15.7-10.8-29-14.8l-11.4-3.4c-5.2-1.6-9.3-3-12.3-4.3-3-1.3-5.2-2.7-6.4-4.2-1.3-1.5-1.9-3.3-1.9-5.5s.9-5,2.6-7c1.7-2,4.1-3.5,7.1-4.5,3.1-1.1,6.6-1.6,10.7-1.6s8.3.5,12.4,1.6c4.1,1.1,7.9,2.5,11.4,4.4s6.4,4,8.8,6.5l15.1-22.4c-5.2-5-12-8.9-20.5-11.8-8.5-2.9-17.7-4.3-27.6-4.3s-13.8,1-19.8,3-11.3,4.9-15.8,8.5c-4.5,3.6-8,7.9-10.5,12.9-2.5,4.9-3.7,10.3-3.7,16.2,0,9.1,3,16.9,8.9,23.3,5.9,6.5,15.6,11.6,29,15.3l11.2,3.2c7.9,2.1,13.3,4.3,16.2,6.6,2.9,2.3,4.3,5.1,4.3,8.5s-2,7.2-6,9.4c-1.3.7-2.8,1.2-4.4,1.7,10.7,4,22.1,6.7,33.9,7.9.1-.1.2-.3.3-.4,4.2-6.3,6.3-13.6,6.3-21.9s-3-17.2-9-23.1M1271.7,572.9c20.8-12.6,45.3-20,71.4-20s7.1.1,10.6.4v-18.1h-51.1v-24.3h60.9v-26.9h-91.9v88.8ZM954.2,512.4h34.8v49.9c9.9-3.9,20.3-6.6,31.2-8.1v-41.8h34.8v-28.3h-100.8v28.3Z"/>
</svg>